# xmcd
#
# Track frame offsets: 
#        150
#        14248
#        28410
#        43883
#        55628
#        74590
#        88045
#        100163
#        115420
#        128275
#        145278
#
# Disc length: 2068 seconds
#
# Revision: 2
# Processed by: cddbd v1.5.1PL0 Copyright (c) Steve Scherf et al.
# Submitted via: ExactAudioCopy v0.95a5
#
DISCID=a008120b
DTITLE=The Lonesome Strangers - The Lonesome Strangers
DYEAR=1989
DGENRE=Rock
TTITLE0=Clementine
TTITLE1=Lay Down My Old Guitar
TTITLE2=Another Fool Like Me
TTITLE3=Goodbye Lonesome, Hello Baby Doll
TTITLE4=Oh My Train
TTITLE5=Don't You Run Away From Me
TTITLE6=Just Can't Cry No More
TTITLE7=Don't Back Down
TTITLE8=Daddy's Gone Gray
TTITLE9=Just Walk Away
TTITLE10=We Used to Fuss
EXTD=
EXTT0=
EXTT1=
EXTT2=
EXTT3=
EXTT4=
EXTT5=
EXTT6=
EXTT7=
EXTT8=
EXTT9=
EXTT10=
PLAYORDER=
